<svg xmlns="http://www.w3.org/2000/svg" width="343.436" height="84.875" viewBox="0 0 343.436 84.875">
  <g id="Group_11" data-name="Group 11" transform="translate(-775 -65)">
    <path id="Path_6" data-name="Path 6" d="M400.284,354.4a5.05,5.05,0,1,1,5.046,5.05,5.045,5.045,0,0,1-5.046-5.05" transform="translate(388.709 -261.501)" fill="#a5aecd"/>
    <path id="Path_7" data-name="Path 7" d="M386.115,369.335c0-5.517-.461-5.983-5.978-5.983a5.05,5.05,0,1,1,5.05-5.049c0,5.516.467,5.982,5.978,5.982a5.048,5.048,0,1,1-5.05,5.051" transform="translate(399.918 -263.237)" fill="#003883"/>
    <path id="Path_8" data-name="Path 8" d="M428.521,348.954c0-5.52-.464-5.987-5.982-5.987a5.049,5.049,0,1,1,5.053-5.051c0,5.518.465,5.985,5.978,5.985a5.05,5.05,0,1,1-5.049,5.053" transform="translate(381.054 -254.172)" fill="#6271a8"/>
    <path id="Path_9" data-name="Path 9" d="M433.317,324.281c0-5.516-.467-5.983-5.981-5.983a5.05,5.05,0,1,1,5.046-5.046c0,5.513.469,5.976,5.987,5.976a5.05,5.05,0,1,1-5.051,5.053" transform="translate(378.922 -243.197)" fill="#ff7b27"/>
    <path id="Path_10" data-name="Path 10" d="M418.717,376.289a5.05,5.05,0,1,1,5.053,5.052,5.038,5.038,0,0,1-5.053-5.052" transform="translate(380.51 -271.24)" fill="#ff7b27"/>
    <path id="Path_11" data-name="Path 11" d="M378.98,334.051a5.048,5.048,0,1,1,5.046,5.053,5.04,5.04,0,0,1-5.046-5.053" transform="translate(398.185 -252.451)" fill="#f5b070"/>
    <path id="Path_12" data-name="Path 12" d="M396.212,315.5a5.05,5.05,0,1,1,5.048,5.053,5.041,5.041,0,0,1-5.048-5.053" transform="translate(390.52 -244.2)" fill="#003883"/>
    <path id="Path_13" data-name="Path 13" d="M502.905,357.375a17.006,17.006,0,0,1-7.091,1.376c-6.738,0-12.143-3.979-12.143-13.778,0-6.736,2.7-11.635,10.36-11.635,7.858,0,9.334,5.258,9.334,9.952h-14.54c0,4.8,2.141,12.76,9.439,12.76a10.774,10.774,0,0,0,4.641-1.022Zm-4.588-16.432c0-1.887-.665-5.46-4.493-5.46-3.981,0-4.748,4.085-4.846,5.46Z" transform="translate(351.618 -254.38)" fill="#003883"/>
    <path id="Path_14" data-name="Path 14" d="M545.976,352.876h-.1c-.814,1.788-3.114,6.327-8.471,6.327-4.286,0-6.123-3.572-6.123-7.093V334.356h5.155v15.206c0,3.061.46,5.817,3.061,5.817,5.1,0,6.532-7.959,6.532-10.973v-10.05h5.153v24.289h-5.2Z" transform="translate(330.442 -254.833)" fill="#003883"/>
    <path id="Path_15" data-name="Path 15" d="M582.56,333.9h5.155v6.171h.106c1.63-3.265,3.417-6.378,7.856-6.736V338.7c-4.949.151-7.961,1.836-7.961,8.369v11.126H582.56Z" transform="translate(307.633 -254.38)" fill="#003883"/>
    <path id="Path_16" data-name="Path 16" d="M611.9,346.045c0-8.218,3.57-12.707,10.715-12.707s10.764,4.49,10.764,12.707-3.623,12.705-10.764,12.705S611.9,354.263,611.9,346.045Zm10.715,10.564c4.591,0,5.153-6.123,5.153-10.564s-.562-10.563-5.153-10.563c-4.542,0-5.107,6.124-5.107,10.563S618.076,356.609,622.618,356.609Z" transform="translate(294.581 -254.38)" fill="#003883"/>
    <path id="Path_17" data-name="Path 17" d="M661.81,327.806h-4.237v-2.651h4.237v-2.3c0-4.492,1.072-9.188,9.234-9.188a25.325,25.325,0,0,1,5.154.564v3.521a10.469,10.469,0,0,0-4.54-1.123c-4.184,0-4.695,3.012-4.695,5.611v2.911h6.889v2.651h-6.889v21.639H661.81Z" transform="translate(274.267 -245.633)" fill="#003883"/>
    <path id="Path_18" data-name="Path 18" d="M697.465,314.687h5.56v5.1h-5.56Zm.2,10.92h5.153V349.9h-5.153Z" transform="translate(256.523 -246.084)" fill="#003883"/>
    <path id="Path_19" data-name="Path 19" d="M722.186,333.9h5.153v5.766h.1c.814-1.785,3.164-6.331,8.521-6.331,4.29,0,6.122,3.573,6.122,7.094v17.76h-5.151V342.986c0-3.063-.46-5.82-3.065-5.82-5.1,0-6.531,7.961-6.531,10.97v10.057h-5.153Z" transform="translate(245.527 -254.38)" fill="#003883"/>
    <path id="Path_20" data-name="Path 20" d="M783.02,338.7c-1.736-1.174-3.673-2.4-6.127-2.4-1.632,0-3.464.715-3.464,2.551,0,4.391,11.121,4.8,11.121,12.553,0,5.207-4.081,7.349-9.236,7.349a19.5,19.5,0,0,1-6.48-1.072v-4.744a12.145,12.145,0,0,0,6.736,2.552c2.959,0,4.184-1.531,4.184-3.062,0-4.288-10.971-5.153-10.971-12.093,0-3.672,2.45-6.993,8.521-6.993a19.734,19.734,0,0,1,5.716.974Z" transform="translate(224.801 -254.38)" fill="#003883"/>
    <g id="Group_7" data-name="Group 7" transform="translate(1059.321 121.583)">
      <path id="Path_21" data-name="Path 21" d="M893.63,410.111h5.33l6.353,22.405h-4.246l-1.239-4.835h-7.066l-1.332,4.835h-4.246Zm.063,14.038H898.9l-2.51-9.731h-.062Z" transform="translate(-887.185 -410.111)" fill="#8f9ac1"/>
      <path id="Path_22" data-name="Path 22" d="M936,423.483a5.126,5.126,0,0,0-2.48.371,4.727,4.727,0,0,1,.868,2.852c0,3.037-2.045,5.207-6.074,5.207-1.673,0-3.005.061-3.005.992,0,2.6,10.6-.93,10.6,5.515,0,2.293-2.325,4.772-7.469,4.772-4.338,0-7.189-1.3-7.189-3.842a2.841,2.841,0,0,1,2.913-2.975v-.062c-.743-.465-2.386-.868-2.386-2.6,0-1.55,1.8-2.728,2.51-2.944a5.336,5.336,0,0,1-2.386-4.277c0-2.819,2.169-5.609,6.353-5.609a6.462,6.462,0,0,1,3.967,1.426c.744-.992,1.952-1.487,3.781-1.426Zm-11.219,15.37c0,1.239,1.054,1.8,4.277,1.8,2.478,0,3.315-1.24,3.315-1.8,0-.744-1.147-1.859-4.865-1.859C925.4,436.994,924.779,438.171,924.779,438.853Zm3.44-15.123a2.665,2.665,0,1,0,2.634,2.666A2.657,2.657,0,0,0,928.219,423.73Z" transform="translate(-902.336 -414.898)" fill="#8f9ac1"/>
      <path id="Path_23" data-name="Path 23" d="M951.622,437.308V421.193h3.533v2.758h.063a4.753,4.753,0,0,1,4.524-3.068v4.06a4.439,4.439,0,0,0-.681-.031,4.592,4.592,0,0,0-3.6,2.6v9.793Z" transform="translate(-915.846 -414.902)" fill="#8f9ac1"/>
      <path id="Path_24" data-name="Path 24" d="M975.434,420.883c4.369,0,7,3.254,7,8.367s-2.634,8.367-7,8.367-7-3.254-7-8.367S971.064,420.883,975.434,420.883Zm0,3.1c-2.138,0-3.161,1.673-3.161,5.268s1.023,5.268,3.161,5.268,3.161-1.673,3.161-5.268S977.572,423.983,975.434,423.983Z" transform="translate(-923.323 -414.902)" fill="#8f9ac1"/>
    </g>
    <rect id="Rectangle_2" data-name="Rectangle 2" width="1.546" height="70.879" transform="translate(1035.714 73.514)" fill="#8f9ac1"/>
  </g>
</svg>
