<svg version="1.2" xmlns="http://www.w3.org/2000/svg" viewBox="0 0 3779 921" width="300" height="73">
	<style>
		.s0 { fill: #f5db28 } 
		.s1 { fill: #01432f } 
	</style>
	<g id="icon">
		<path id="&lt;Path&gt;" class="s0" d="m3315.34 217.54l208.65 333.82-208.65 332.98h-209.33l209.33-332.98-209.33-333.82z"/>
		<path id="&lt;Path&gt;" class="s0" d="m3561.8 217.54l208.65 333.82-208.65 332.98h-209.33l209.33-332.98-209.33-333.82z"/>
	</g>
	<g id="ophaaldienst">
		<g id="&lt;Group&gt;">
			<path id="&lt;Compound Path&gt;" fill-rule="evenodd" class="s0" d="m278.23 832.62q-2.14 12.92-7.13 21.43-5.35 8.25-14.27 14.16-8.92 5.91-21.03 8.65v0.28q-10.35 2.47-26.75 3.85-16.4 1.37-39.94 1.37h-34.59q-54.2 0-75.24-7.7-23.53-7.96-31.73-29.4-2.86-7.96-4.1-22.26-1.25-14.28-1.25-35.45 0-17.31 1.96-30.23 1.96-12.91 6.95-21.16 5.35-8.24 14.09-14.15 8.73-5.91 21.57-9.21h0.36q19.97-5.22 67.39-5.22h34.59q52.06 0 74.89 7.97 11.41 3.85 19.43 11.27 8.02 7.42 11.95 18.41 2.13 7.7 3.56 21.98 1.43 14.29 1.43 35.46 0 17.03-2.14 29.95zm-26.39-45.07q0-14.02-1.42-24.18-1.43-10.17-5.35-15.94-5-11.27-22.47-14.29-13.91-2.75-53.84-2.75h-34.24q-39.94 0-54.2 2.75-17.11 3.02-23.18 14.29-6.77 12.09-6.77 40.12v15.12q0 28.03 6.77 40.12 6.42 10.99 23.54 14.01 13.91 2.75 53.84 2.75h34.24q39.58 0 53.48-2.75 17.47-3.02 22.83-14.01 3.92-5.77 5.35-15.94 1.42-10.16 1.42-24.18z"/>
			<path id="&lt;Compound Path&gt;" fill-rule="evenodd" class="s0" d="m477.91 809.81h-121.95v70.08q0 2.47-3.57 2.47h-23.89q-3.2 0-3.21-2.47v-168.74q0.01-2.74 3.21-2.74h149.41q19.97 0 34.59 3.02 14.62 3.03 23.18 9.34 8.2 6.32 12.84 17.18 4.63 10.86 4.63 26.24 0 45.62-75.24 45.62zm44.93-54.96q0-7.15-3.21-12.09-3.21-4.95-10.34-7.7-5.35-1.92-13.19-2.89-7.85-0.96-19.26-0.96h-120.88v55.79h120.88q22.11 0 32.45-3.57v0.27q7.13-2.74 10.34-7.97 3.21-5.21 3.21-12.36z"/>
			<path id="&lt;Compound Path&gt;" class="s0" d="m801.34 882.36q-2.86 0-2.86-2.47v-75.58h-185.07v75.58q0 2.47-3.2 2.47h-22.47q-3.21 0-3.21-2.47v-168.74q0-2.74 3.21-2.74h22.47q3.2 0 3.2 2.74v70.36h185.07v-70.36q0-2.74 2.86-2.74h22.82q2.85 0 2.85 2.74v168.74q0 2.47-2.85 2.47z"/>
			<path id="&lt;Compound Path&gt;" fill-rule="evenodd" class="s0" d="m1096.94 882.36q0-0.27-0.35-0.82l0.35 0.27-26.74-40.4h-150.13l-26.38 40.4c0 0.37 0 0.37 0 0.55h-26.75q-3.21 0-3.21-2.47v-0.28q0-0.54 0.71-1.1v0.55l111.97-170.11q0.71-0.54 2.14-0.54h34.59q1.07 0 1.25 0.13 0.17 0.15 0.54 0.41l112.68 170.11v-0.55q0.35 0.56 0.35 1.1v0.28q0 2.47-2.85 2.47zm-161.89-62.66h120.17l-59.55-91.23z"/>
			<path id="&lt;Compound Path&gt;" fill-rule="evenodd" class="s0" d="m1386.84 882.36q0-0.27-0.36-0.82l0.36 0.27-26.74-40.4h-150.13l-26.39 40.4c0 0.37 0 0.37 0 0.55h-26.74q-3.21 0-3.21-2.47v-0.28q0-0.54 0.72-1.1v0.55l111.96-170.11q0.71-0.54 2.14-0.54h34.59q1.07 0 1.25 0.13 0.17 0.15 0.54 0.41l112.68 170.11v-0.55q0.35 0.56 0.36 1.1v0.28q-0.01 2.47-2.86 2.47zm-161.89-62.66h120.17l-59.55-91.23z"/>
			<path id="&lt;Compound Path&gt;" class="s0" d="m1456.73 882.36q-3.21 0-3.21-2.47v-168.74q0-2.74 3.21-2.74h22.46q3.21 0 3.21 2.74v148.68h157.26q3.21-0.01 3.21 2.47v17.59q0 2.47-3.21 2.47z"/>
			<path id="&lt;Compound Path&gt;" fill-rule="evenodd" class="s0" d="m1917.26 841.82q-4.11 15.53-13.38 23.5-9.63 8.25-29.59 12.64-19.97 4.4-50.28 4.4h-149.77q-3.21 0-3.21-2.47v-168.74q0-2.74 3.21-2.74h143.35q46 0 68.82 9.61 23.53 9.63 30.31 31.06 1.78 7.97 3.21 21.16 1.42 13.19 1.43 32.43 0 23.63-4.1 39.15zm-24.43-53.45q-0.01-35.99-13.19-46.44-13.91-10.71-58.84-10.72h-120.88v128.62h126.59q33.51 0 46-4.67 13.19-3.58 16.76-15.94 2.13-4.68 2.85-14.02 0.71-9.34 0.71-22.53z"/>
			<path id="&lt;Compound Path&gt;" class="s0" d="m1965.57 882.36q-2.85 0-2.85-2.47v-168.74q0-2.74 2.85-2.74h17.48q2.49 0 2.49 2.74v168.74q0 2.47-2.49 2.47z"/>
			<path id="&lt;Compound Path&gt;" class="s0" d="m2034.03 882.36q-3.2 0-3.2-2.47v-168.74q0-2.74 3.2-2.74h190.43q2.84 0 2.84 2.74v17.32q0 2.75-2.84 2.74h-164.75v50.3h159.4q2.85 0 2.85 2.74v17.31q0 2.76-2.85 2.75h-159.4v55.52h164.75q2.84-0.01 2.84 2.47v17.59q0 2.47-2.84 2.47z"/>
			<path id="&lt;Compound Path&gt;" class="s0" d="m2471.21 882.36q-1.79 0-2.14-0.82l-170.81-154.72h-7.13v153.07q0 2.47-3.21 2.47h-22.47q-3.2 0-3.2-2.47v-168.74q0-2.74 3.2-2.74h49.57q1.07 0 2.5 1.09l159.75 146.48v-144.83q0-2.74 3.57-2.74h22.46q3.21 0 3.21 2.74v168.74q0 2.47-3.21 2.47z"/>
			<path id="&lt;Compound Path&gt;" class="s0" d="m2791.78 872.46q-8.56 5.23-22.29 7.57-13.72 2.33-32.62 2.33h-110.54q-33.53 0-52.07-11.82-21.75-13.18-21.75-38.47 0-2.47 2.86-2.47h22.46q3.21 0 3.21 2.47 0.35 8.25 3.92 14.01 3.56 5.78 11.77 8.8 5.69 2.2 14.98 3.57 9.26 1.38 21.75 1.38h102.34q12.12 0 20.33-1.38 8.19-1.37 13.55-3.85 7.12-3.29 9.98-9.06 2.85-5.77 2.85-13.74 0-16.77-19.61-22.82-7.85-2.74-20.68-3.84-12.84-1.1-29.95-1.1-3.94 0-8.56 0-4.64 0-11.06 0.27h-5.71-6.41q-0.72 0-1.78 0.14-1.08 0.14-2.5 0.14h-4.64q-7.49 0.28-13.19 0.27-5.71 0-9.27 0-45.65 0-68.11-8.24-30.31-10.99-30.31-40.67 0-47.54 69.54-47.54h112.68q76.3 0 76.31 50.29-0.01 2.2-2.5 2.2h-23.18q-2.85 0-2.85-2.2-0.36-7.97-3.92-13.88-3.57-5.91-11.77-8.94-12.13-4.66-36.37-4.67h-109.12q-11.06 0.01-18.36 1.38-7.32 1.38-11.59 3.57-9.99 4.95-9.99 20.06 0 15.12 19.61 21.16 16.4 5.22 50.29 5.22 3.91 0 11.05 0 7.48 0 17.83-0.27 1.07 0 2.31-0.14 1.25-0.13 2.68-0.13h4.64q6.41-0.28 11.41-0.28 4.98 0 7.84 0 24.25 0 42.08 2.2 17.83 2.2 29.96 6.32 31.73 12.1 31.73 42.04 0 27.76-19.26 40.12z"/>
			<path id="&lt;Compound Path&gt;" class="s0" d="m2975.07 731.21v148.68q0 2.47-3.21 2.47h-22.46q-2.85 0-2.85-2.47v-148.68h-101.64q-3.56 0.01-3.56-2.74v-17.32q0-2.74 3.56-2.74h232.15q3.56 0 3.56 2.74v17.32q0 2.75-3.56 2.74z"/>
		</g>
	</g>
	<g id="miedema">
		<g id="&lt;Group&gt;">
			<path id="&lt;Compound Path&gt;" class="s1" d="m628.63 626.25h-99.59v-216.07q0-57.83-16.87-83.94-16.87-26.09-57.83-26.1-44.99 0-62.25 20.88-17.28 20.89-17.27 57.03v248.2h-98.8v-216.07q-0.01-31.32-4.42-52.61-4.42-21.28-14.05-34.14-9.65-12.84-24.9-18.07-15.27-5.22-36.95-5.22-45.79 0-73.9 32.93v293.18h-99.6v-401.61h81.93l5.62 31.32q46.58-37.75 102.82-37.75 36.93 0 69.88 15.66 32.92 15.67 53.01 45.38 5.61-11.24 18.07-22.08 12.44-10.84 29.72-19.68 17.27-8.83 38.96-14.06 21.68-5.22 46.58-5.22 39.36 0 69.48 13.66 30.12 13.66 50.2 38.55 20.07 24.91 30.12 60.64 10.04 35.75 10.04 79.12z"/>
			<path id="&lt;Compound Path&gt;" class="s1" d="m793.29 163.59h-99.6v-99.6h99.6zm0 462.66h-99.6v-401.61h99.6z"/>
			<path id="&lt;Compound Path&gt;" fill-rule="evenodd" class="s1" d="m1201.3 447.13h-260.22q8.05 52.22 42.31 78.72 34.24 26.5 77.76 26.5 13.69 0 29.81-2.41 16.11-2.41 32.64-6.83 16.51-4.41 32.63-10.44 16.11-6.02 29.01-13.25l4.84 84.33q-58.65 30.54-134.14 30.53-53.02 0-93.58-16.07-40.56-16.06-68.27-43.77-27.72-27.71-41.77-65.86-14.06-38.15-14.05-82.34 0-43.36 13.25-81.12 13.25-37.75 38.15-66.27 24.89-28.5 60.64-44.58 35.74-16.06 80.73-16.06 37.75 0 70.28 12.45 32.53 12.46 56.23 35.34 23.68 22.9 36.94 55.02 13.26 32.14 13.26 71.49-0.01 22.5-6.45 54.62zm-257.81-67.47h163.05q0-31.33-17.76-55.43-17.77-24.09-54.89-24.09-37.13 0-59.73 21.69-22.61 21.68-30.67 57.83z"/>
			<path id="&lt;Compound Path&gt;" fill-rule="evenodd" class="s1" d="m1618.19 626.25h-93.97l-1.61-22.5q-44.99 30.54-97.99 30.53-47.4 0-83.94-16.07-36.56-16.06-61.45-44.57-24.9-28.51-38.15-66.27-13.25-37.75-13.25-81.13-0.01-43.36 13.65-81.52 13.65-38.14 38.96-66.27 25.29-28.1 61.85-44.18 36.54-16.06 82.33-16.06 53.8 0 93.97 26.51v-220.89h99.6zm-186.76-326.11q-48 0-74.4 34.14-26.39 34.14-26.39 91.97 0 57.84 26.39 91.97 26.4 34.14 74.4 34.13 46.39 0 69.18-33.73 22.8-33.74 22.8-92.37 0-58.63-22.8-92.37-22.79-33.74-69.18-33.74z"/>
			<path id="&lt;Compound Path&gt;" fill-rule="evenodd" class="s1" d="m2025.4 447.13h-260.22q8.05 52.22 42.31 78.72 34.24 26.5 77.76 26.5 13.69 0 29.81-2.41 16.12-2.41 32.64-6.83 16.51-4.41 32.63-10.44 16.11-6.02 29.02-13.25l4.83 84.33q-58.65 30.54-134.14 30.53-53.02 0-93.57-16.07-40.57-16.06-68.27-43.77-27.72-27.71-41.77-65.86-14.06-38.15-14.06-82.34 0-43.36 13.25-81.12 13.25-37.75 38.15-66.27 24.9-28.5 60.65-44.58 35.73-16.06 80.72-16.06 37.75 0 70.28 12.45 32.53 12.46 56.23 35.34 23.69 22.9 36.95 55.02 13.25 32.14 13.25 71.49 0 22.5-6.45 54.62zm-257.81-67.47h163.06q-0.01-31.33-17.76-55.43-17.77-24.09-54.9-24.09-37.13 0-59.72 21.69-22.61 21.68-30.68 57.83z"/>
			<path id="&lt;Compound Path&gt;" class="s1" d="m2682.46 626.25h-99.6v-216.07q0-57.83-16.87-83.94-16.86-26.09-57.83-26.1-44.99 0-62.25 20.88-17.28 20.89-17.27 57.03v248.2h-98.79v-216.07q-0.01-31.32-4.42-52.61-4.42-21.28-14.06-34.14-9.65-12.84-24.9-18.07-15.27-5.22-36.95-5.22-45.79 0-73.9 32.93v293.18h-99.59v-401.61h81.92l5.63 31.32q46.57-37.75 102.81-37.75 36.93 0 69.88 15.66 32.93 15.67 53.01 45.38 5.61-11.24 18.07-22.08 12.45-10.84 29.73-19.68 17.26-8.83 38.95-14.06 21.69-5.22 46.59-5.22 39.35 0 69.48 13.66 30.11 13.66 50.2 38.55 20.07 24.91 30.12 60.64 10.04 35.75 10.04 79.12z"/>
			<path id="&lt;Compound Path&gt;" fill-rule="evenodd" class="s1" d="m3092.1 552.35l-8.83 81.93h-36.15q-65.07 0-89.96-46.59-41.78 46.59-122.89 46.59-24.91 0-46.19-8.43-21.29-8.44-36.94-24.1-15.68-15.66-24.5-37.75-8.85-22.08-8.84-50.21 0-40.95 24.1-68.27 24.09-27.3 58.63-43.77 34.53-16.46 73.49-23.7 38.95-7.23 69.48-8.03-1.61-36.14-17.67-51.01-16.06-14.85-54.61-14.85-47.41 0-110.05 30.52l-8.83-81.13q74.69-35.34 146.18-35.34 145.38 0 145.38 161.45v108.43q0 21.69 1.21 34.54 1.21 12.86 4.82 19.68 3.62 6.84 10.84 8.43 7.23 1.62 18.48 1.61zm-147.8-23.29v-91.57q-23.3 1.61-45.38 6.42-22.09 4.83-38.95 14.06-16.88 9.25-27.31 22.09-10.45 12.85-10.45 29.72 0 48.19 53.82 48.19 37.74 0 68.27-28.91z"/>
		</g>
	</g>
</svg>